<mxfile host="app.diagrams.net" agent="Mozilla/5.0 (Windows NT 10.0; Win64; x64) AppleWebKit/537.36 (KHTML, like Gecko) Chrome/134.0.0.0 Safari/537.36" version="26.1.1">
  <diagram name="第 1 页" id="wksJPggbRwyhzGnYYlrC">
    <mxGraphModel dx="2901" dy="1098" grid="1" gridSize="10" guides="1" tooltips="1" connect="1" arrows="1" fold="1" page="1" pageScale="1" pageWidth="827" pageHeight="1169" math="0" shadow="0">
      <root>
        <mxCell id="0" />
        <mxCell id="1" parent="0" />
        <mxCell id="kLFt8e_vZOM-jvjozNHO-1" style="edgeStyle=orthogonalEdgeStyle;rounded=0;orthogonalLoop=1;jettySize=auto;html=1;exitX=0.5;exitY=1;exitDx=0;exitDy=0;entryX=1;entryY=0.5;entryDx=0;entryDy=0;" edge="1" parent="1" source="kLFt8e_vZOM-jvjozNHO-2" target="kLFt8e_vZOM-jvjozNHO-77">
          <mxGeometry relative="1" as="geometry" />
        </mxCell>
        <mxCell id="kLFt8e_vZOM-jvjozNHO-2" value="" style="rounded=0;whiteSpace=wrap;html=1;dashed=1;dashPattern=8 8;" vertex="1" parent="1">
          <mxGeometry x="837" y="273" width="120" height="319" as="geometry" />
        </mxCell>
        <mxCell id="kLFt8e_vZOM-jvjozNHO-3" style="edgeStyle=orthogonalEdgeStyle;rounded=0;orthogonalLoop=1;jettySize=auto;html=1;exitX=1;exitY=0.5;exitDx=0;exitDy=0;" edge="1" parent="1" source="kLFt8e_vZOM-jvjozNHO-5" target="kLFt8e_vZOM-jvjozNHO-8">
          <mxGeometry relative="1" as="geometry" />
        </mxCell>
        <mxCell id="kLFt8e_vZOM-jvjozNHO-4" value="adjust" style="edgeLabel;html=1;align=center;verticalAlign=middle;resizable=0;points=[];" vertex="1" connectable="0" parent="kLFt8e_vZOM-jvjozNHO-3">
          <mxGeometry x="-0.1" y="1" relative="1" as="geometry">
            <mxPoint as="offset" />
          </mxGeometry>
        </mxCell>
        <mxCell id="kLFt8e_vZOM-jvjozNHO-5" value="" style="rounded=0;whiteSpace=wrap;html=1;" vertex="1" parent="1">
          <mxGeometry x="590" y="315" width="70" height="265" as="geometry" />
        </mxCell>
        <mxCell id="kLFt8e_vZOM-jvjozNHO-6" value="&lt;p class=&quot;MsoNormal&quot; style=&quot;text-indent:21.0pt&quot;&gt;&lt;br&gt;&lt;/p&gt;" style="rounded=0;whiteSpace=wrap;html=1;fontFamily=Times New Roman;" vertex="1" parent="1">
          <mxGeometry x="240" y="320" width="70" height="260" as="geometry" />
        </mxCell>
        <mxCell id="kLFt8e_vZOM-jvjozNHO-7" style="edgeStyle=orthogonalEdgeStyle;rounded=0;orthogonalLoop=1;jettySize=auto;html=1;exitX=1;exitY=0.5;exitDx=0;exitDy=0;entryX=0;entryY=0.5;entryDx=0;entryDy=0;" edge="1" parent="1" source="kLFt8e_vZOM-jvjozNHO-8" target="kLFt8e_vZOM-jvjozNHO-74">
          <mxGeometry relative="1" as="geometry" />
        </mxCell>
        <mxCell id="kLFt8e_vZOM-jvjozNHO-8" value="Mu" style="ellipse;whiteSpace=wrap;html=1;" vertex="1" parent="1">
          <mxGeometry x="730" y="427.5" width="57" height="40" as="geometry" />
        </mxCell>
        <mxCell id="kLFt8e_vZOM-jvjozNHO-9" style="edgeStyle=orthogonalEdgeStyle;rounded=0;orthogonalLoop=1;jettySize=auto;html=1;exitX=1;exitY=0.5;exitDx=0;exitDy=0;" edge="1" parent="1" source="kLFt8e_vZOM-jvjozNHO-10">
          <mxGeometry relative="1" as="geometry">
            <mxPoint x="70" y="447.66666666666697" as="targetPoint" />
          </mxGeometry>
        </mxCell>
        <mxCell id="kLFt8e_vZOM-jvjozNHO-10" value="init DQN" style="rounded=0;whiteSpace=wrap;html=1;" vertex="1" parent="1">
          <mxGeometry x="-30" y="427.5" width="70" height="40" as="geometry" />
        </mxCell>
        <mxCell id="kLFt8e_vZOM-jvjozNHO-11" style="edgeStyle=orthogonalEdgeStyle;rounded=0;orthogonalLoop=1;jettySize=auto;html=1;exitX=0.5;exitY=0;exitDx=0;exitDy=0;entryX=0;entryY=0.5;entryDx=0;entryDy=0;" edge="1" parent="1" source="kLFt8e_vZOM-jvjozNHO-13" target="kLFt8e_vZOM-jvjozNHO-15">
          <mxGeometry relative="1" as="geometry" />
        </mxCell>
        <mxCell id="kLFt8e_vZOM-jvjozNHO-12" style="edgeStyle=orthogonalEdgeStyle;rounded=0;orthogonalLoop=1;jettySize=auto;html=1;exitX=1;exitY=0.5;exitDx=0;exitDy=0;entryX=0;entryY=0.5;entryDx=0;entryDy=0;" edge="1" parent="1" source="kLFt8e_vZOM-jvjozNHO-13" target="kLFt8e_vZOM-jvjozNHO-6">
          <mxGeometry relative="1" as="geometry" />
        </mxCell>
        <mxCell id="kLFt8e_vZOM-jvjozNHO-13" value="是否预热" style="rhombus;whiteSpace=wrap;html=1;" vertex="1" parent="1">
          <mxGeometry x="70" y="410" width="111" height="80" as="geometry" />
        </mxCell>
        <mxCell id="kLFt8e_vZOM-jvjozNHO-14" style="edgeStyle=orthogonalEdgeStyle;rounded=0;orthogonalLoop=1;jettySize=auto;html=1;exitX=1;exitY=0.5;exitDx=0;exitDy=0;entryX=0;entryY=0.5;entryDx=0;entryDy=0;" edge="1" parent="1" source="kLFt8e_vZOM-jvjozNHO-15" target="kLFt8e_vZOM-jvjozNHO-74">
          <mxGeometry relative="1" as="geometry">
            <mxPoint x="910" y="275.16666666666697" as="targetPoint" />
            <Array as="points">
              <mxPoint x="810" y="275" />
              <mxPoint x="810" y="483" />
            </Array>
          </mxGeometry>
        </mxCell>
        <mxCell id="kLFt8e_vZOM-jvjozNHO-15" value="Mu = 0.2" style="rounded=0;whiteSpace=wrap;html=1;" vertex="1" parent="1">
          <mxGeometry x="411" y="260" width="69" height="30" as="geometry" />
        </mxCell>
        <mxCell id="kLFt8e_vZOM-jvjozNHO-16" value="" style="group" vertex="1" connectable="0" parent="1">
          <mxGeometry x="350" y="350" width="220" height="200" as="geometry" />
        </mxCell>
        <mxCell id="kLFt8e_vZOM-jvjozNHO-17" style="rounded=0;orthogonalLoop=1;jettySize=auto;html=1;exitX=1;exitY=0.5;exitDx=0;exitDy=0;entryX=0;entryY=0.5;entryDx=0;entryDy=0;" edge="1" parent="kLFt8e_vZOM-jvjozNHO-16" source="kLFt8e_vZOM-jvjozNHO-21" target="kLFt8e_vZOM-jvjozNHO-51">
          <mxGeometry relative="1" as="geometry" />
        </mxCell>
        <mxCell id="kLFt8e_vZOM-jvjozNHO-18" style="rounded=0;orthogonalLoop=1;jettySize=auto;html=1;exitX=1;exitY=0.5;exitDx=0;exitDy=0;entryX=0;entryY=0.5;entryDx=0;entryDy=0;" edge="1" parent="kLFt8e_vZOM-jvjozNHO-16" source="kLFt8e_vZOM-jvjozNHO-21" target="kLFt8e_vZOM-jvjozNHO-46">
          <mxGeometry relative="1" as="geometry" />
        </mxCell>
        <mxCell id="kLFt8e_vZOM-jvjozNHO-19" style="rounded=0;orthogonalLoop=1;jettySize=auto;html=1;exitX=1;exitY=0.5;exitDx=0;exitDy=0;entryX=0;entryY=0.5;entryDx=0;entryDy=0;" edge="1" parent="kLFt8e_vZOM-jvjozNHO-16" source="kLFt8e_vZOM-jvjozNHO-21" target="kLFt8e_vZOM-jvjozNHO-41">
          <mxGeometry relative="1" as="geometry" />
        </mxCell>
        <mxCell id="kLFt8e_vZOM-jvjozNHO-20" style="rounded=0;orthogonalLoop=1;jettySize=auto;html=1;exitX=1;exitY=0.5;exitDx=0;exitDy=0;entryX=0;entryY=0.5;entryDx=0;entryDy=0;" edge="1" parent="kLFt8e_vZOM-jvjozNHO-16" source="kLFt8e_vZOM-jvjozNHO-21" target="kLFt8e_vZOM-jvjozNHO-36">
          <mxGeometry relative="1" as="geometry" />
        </mxCell>
        <mxCell id="kLFt8e_vZOM-jvjozNHO-21" value="" style="ellipse;whiteSpace=wrap;html=1;aspect=fixed;fontSize=12;strokeWidth=1;" vertex="1" parent="kLFt8e_vZOM-jvjozNHO-16">
          <mxGeometry y="30.95333333333333" width="31.428571428571427" height="31.428571428571427" as="geometry" />
        </mxCell>
        <mxCell id="kLFt8e_vZOM-jvjozNHO-22" style="rounded=0;orthogonalLoop=1;jettySize=auto;html=1;exitX=1;exitY=0.5;exitDx=0;exitDy=0;entryX=0;entryY=0.5;entryDx=0;entryDy=0;" edge="1" parent="kLFt8e_vZOM-jvjozNHO-16" source="kLFt8e_vZOM-jvjozNHO-26" target="kLFt8e_vZOM-jvjozNHO-51">
          <mxGeometry relative="1" as="geometry" />
        </mxCell>
        <mxCell id="kLFt8e_vZOM-jvjozNHO-23" style="rounded=0;orthogonalLoop=1;jettySize=auto;html=1;exitX=1;exitY=0.5;exitDx=0;exitDy=0;entryX=0;entryY=0.5;entryDx=0;entryDy=0;" edge="1" parent="kLFt8e_vZOM-jvjozNHO-16" source="kLFt8e_vZOM-jvjozNHO-26" target="kLFt8e_vZOM-jvjozNHO-46">
          <mxGeometry relative="1" as="geometry" />
        </mxCell>
        <mxCell id="kLFt8e_vZOM-jvjozNHO-24" style="rounded=0;orthogonalLoop=1;jettySize=auto;html=1;exitX=1;exitY=0.5;exitDx=0;exitDy=0;entryX=0;entryY=0.5;entryDx=0;entryDy=0;" edge="1" parent="kLFt8e_vZOM-jvjozNHO-16" source="kLFt8e_vZOM-jvjozNHO-26" target="kLFt8e_vZOM-jvjozNHO-41">
          <mxGeometry relative="1" as="geometry" />
        </mxCell>
        <mxCell id="kLFt8e_vZOM-jvjozNHO-25" style="rounded=0;orthogonalLoop=1;jettySize=auto;html=1;exitX=1;exitY=0.5;exitDx=0;exitDy=0;entryX=0;entryY=0.5;entryDx=0;entryDy=0;" edge="1" parent="kLFt8e_vZOM-jvjozNHO-16" source="kLFt8e_vZOM-jvjozNHO-26" target="kLFt8e_vZOM-jvjozNHO-36">
          <mxGeometry relative="1" as="geometry" />
        </mxCell>
        <mxCell id="kLFt8e_vZOM-jvjozNHO-26" value="" style="ellipse;whiteSpace=wrap;html=1;aspect=fixed;fontSize=12;strokeWidth=1;" vertex="1" parent="kLFt8e_vZOM-jvjozNHO-16">
          <mxGeometry y="84.28666666666666" width="31.428571428571427" height="31.428571428571427" as="geometry" />
        </mxCell>
        <mxCell id="kLFt8e_vZOM-jvjozNHO-27" style="rounded=0;orthogonalLoop=1;jettySize=auto;html=1;exitX=1;exitY=0.5;exitDx=0;exitDy=0;entryX=0;entryY=0.5;entryDx=0;entryDy=0;" edge="1" parent="kLFt8e_vZOM-jvjozNHO-16" source="kLFt8e_vZOM-jvjozNHO-31" target="kLFt8e_vZOM-jvjozNHO-51">
          <mxGeometry relative="1" as="geometry" />
        </mxCell>
        <mxCell id="kLFt8e_vZOM-jvjozNHO-28" style="rounded=0;orthogonalLoop=1;jettySize=auto;html=1;exitX=1;exitY=0.5;exitDx=0;exitDy=0;entryX=0;entryY=0.5;entryDx=0;entryDy=0;" edge="1" parent="kLFt8e_vZOM-jvjozNHO-16" source="kLFt8e_vZOM-jvjozNHO-31" target="kLFt8e_vZOM-jvjozNHO-46">
          <mxGeometry relative="1" as="geometry" />
        </mxCell>
        <mxCell id="kLFt8e_vZOM-jvjozNHO-29" style="rounded=0;orthogonalLoop=1;jettySize=auto;html=1;exitX=1;exitY=0.5;exitDx=0;exitDy=0;entryX=0;entryY=0.5;entryDx=0;entryDy=0;" edge="1" parent="kLFt8e_vZOM-jvjozNHO-16" source="kLFt8e_vZOM-jvjozNHO-31" target="kLFt8e_vZOM-jvjozNHO-41">
          <mxGeometry relative="1" as="geometry" />
        </mxCell>
        <mxCell id="kLFt8e_vZOM-jvjozNHO-30" style="rounded=0;orthogonalLoop=1;jettySize=auto;html=1;exitX=1;exitY=0.5;exitDx=0;exitDy=0;entryX=0;entryY=0.5;entryDx=0;entryDy=0;" edge="1" parent="kLFt8e_vZOM-jvjozNHO-16" source="kLFt8e_vZOM-jvjozNHO-31" target="kLFt8e_vZOM-jvjozNHO-36">
          <mxGeometry relative="1" as="geometry" />
        </mxCell>
        <mxCell id="kLFt8e_vZOM-jvjozNHO-31" value="" style="ellipse;whiteSpace=wrap;html=1;aspect=fixed;fontSize=12;strokeWidth=1;" vertex="1" parent="kLFt8e_vZOM-jvjozNHO-16">
          <mxGeometry y="137.62" width="31.428571428571427" height="31.428571428571427" as="geometry" />
        </mxCell>
        <mxCell id="kLFt8e_vZOM-jvjozNHO-32" style="rounded=0;orthogonalLoop=1;jettySize=auto;html=1;exitX=1;exitY=0.5;exitDx=0;exitDy=0;entryX=0;entryY=0.5;entryDx=0;entryDy=0;" edge="1" parent="kLFt8e_vZOM-jvjozNHO-16" source="kLFt8e_vZOM-jvjozNHO-36" target="kLFt8e_vZOM-jvjozNHO-59">
          <mxGeometry relative="1" as="geometry" />
        </mxCell>
        <mxCell id="kLFt8e_vZOM-jvjozNHO-33" style="rounded=0;orthogonalLoop=1;jettySize=auto;html=1;exitX=1;exitY=0.5;exitDx=0;exitDy=0;entryX=0;entryY=0.5;entryDx=0;entryDy=0;" edge="1" parent="kLFt8e_vZOM-jvjozNHO-16" source="kLFt8e_vZOM-jvjozNHO-36" target="kLFt8e_vZOM-jvjozNHO-55">
          <mxGeometry relative="1" as="geometry" />
        </mxCell>
        <mxCell id="kLFt8e_vZOM-jvjozNHO-34" style="rounded=0;orthogonalLoop=1;jettySize=auto;html=1;exitX=1;exitY=0.5;exitDx=0;exitDy=0;entryX=0;entryY=0.5;entryDx=0;entryDy=0;" edge="1" parent="kLFt8e_vZOM-jvjozNHO-16" source="kLFt8e_vZOM-jvjozNHO-36" target="kLFt8e_vZOM-jvjozNHO-68">
          <mxGeometry relative="1" as="geometry" />
        </mxCell>
        <mxCell id="kLFt8e_vZOM-jvjozNHO-35" style="rounded=0;orthogonalLoop=1;jettySize=auto;html=1;exitX=1;exitY=0.5;exitDx=0;exitDy=0;entryX=0;entryY=0.5;entryDx=0;entryDy=0;" edge="1" parent="kLFt8e_vZOM-jvjozNHO-16" source="kLFt8e_vZOM-jvjozNHO-36" target="kLFt8e_vZOM-jvjozNHO-64">
          <mxGeometry relative="1" as="geometry" />
        </mxCell>
        <mxCell id="kLFt8e_vZOM-jvjozNHO-36" value="" style="ellipse;whiteSpace=wrap;html=1;aspect=fixed;fontSize=12;strokeWidth=1;flipV=1;flipH=1;" vertex="1" parent="kLFt8e_vZOM-jvjozNHO-16">
          <mxGeometry x="62.22857142857143" y="159.99666666666667" width="31.428571428571427" height="31.428571428571427" as="geometry" />
        </mxCell>
        <mxCell id="kLFt8e_vZOM-jvjozNHO-37" style="rounded=0;orthogonalLoop=1;jettySize=auto;html=1;exitX=1;exitY=0.5;exitDx=0;exitDy=0;entryX=0;entryY=0.5;entryDx=0;entryDy=0;" edge="1" parent="kLFt8e_vZOM-jvjozNHO-16" source="kLFt8e_vZOM-jvjozNHO-41" target="kLFt8e_vZOM-jvjozNHO-64">
          <mxGeometry relative="1" as="geometry" />
        </mxCell>
        <mxCell id="kLFt8e_vZOM-jvjozNHO-38" style="rounded=0;orthogonalLoop=1;jettySize=auto;html=1;exitX=1;exitY=0.5;exitDx=0;exitDy=0;entryX=0;entryY=0.5;entryDx=0;entryDy=0;" edge="1" parent="kLFt8e_vZOM-jvjozNHO-16" source="kLFt8e_vZOM-jvjozNHO-41" target="kLFt8e_vZOM-jvjozNHO-68">
          <mxGeometry relative="1" as="geometry" />
        </mxCell>
        <mxCell id="kLFt8e_vZOM-jvjozNHO-39" style="rounded=0;orthogonalLoop=1;jettySize=auto;html=1;exitX=1;exitY=0.5;exitDx=0;exitDy=0;entryX=0;entryY=0.5;entryDx=0;entryDy=0;" edge="1" parent="kLFt8e_vZOM-jvjozNHO-16" source="kLFt8e_vZOM-jvjozNHO-41" target="kLFt8e_vZOM-jvjozNHO-55">
          <mxGeometry relative="1" as="geometry" />
        </mxCell>
        <mxCell id="kLFt8e_vZOM-jvjozNHO-40" style="rounded=0;orthogonalLoop=1;jettySize=auto;html=1;exitX=1;exitY=0.5;exitDx=0;exitDy=0;entryX=0;entryY=0.5;entryDx=0;entryDy=0;" edge="1" parent="kLFt8e_vZOM-jvjozNHO-16" source="kLFt8e_vZOM-jvjozNHO-41" target="kLFt8e_vZOM-jvjozNHO-59">
          <mxGeometry relative="1" as="geometry" />
        </mxCell>
        <mxCell id="kLFt8e_vZOM-jvjozNHO-41" value="" style="ellipse;whiteSpace=wrap;html=1;aspect=fixed;fontSize=12;strokeWidth=1;flipV=1;flipH=1;" vertex="1" parent="kLFt8e_vZOM-jvjozNHO-16">
          <mxGeometry x="62.22857142857143" y="106.66666666666666" width="31.428571428571427" height="31.428571428571427" as="geometry" />
        </mxCell>
        <mxCell id="kLFt8e_vZOM-jvjozNHO-42" style="rounded=0;orthogonalLoop=1;jettySize=auto;html=1;exitX=1;exitY=0.5;exitDx=0;exitDy=0;entryX=0;entryY=0.5;entryDx=0;entryDy=0;" edge="1" parent="kLFt8e_vZOM-jvjozNHO-16" source="kLFt8e_vZOM-jvjozNHO-46" target="kLFt8e_vZOM-jvjozNHO-64">
          <mxGeometry relative="1" as="geometry" />
        </mxCell>
        <mxCell id="kLFt8e_vZOM-jvjozNHO-43" style="rounded=0;orthogonalLoop=1;jettySize=auto;html=1;exitX=1;exitY=0.5;exitDx=0;exitDy=0;entryX=0;entryY=0.5;entryDx=0;entryDy=0;" edge="1" parent="kLFt8e_vZOM-jvjozNHO-16" source="kLFt8e_vZOM-jvjozNHO-46" target="kLFt8e_vZOM-jvjozNHO-68">
          <mxGeometry relative="1" as="geometry" />
        </mxCell>
        <mxCell id="kLFt8e_vZOM-jvjozNHO-44" style="rounded=0;orthogonalLoop=1;jettySize=auto;html=1;exitX=1;exitY=0.5;exitDx=0;exitDy=0;entryX=0;entryY=0.5;entryDx=0;entryDy=0;" edge="1" parent="kLFt8e_vZOM-jvjozNHO-16" source="kLFt8e_vZOM-jvjozNHO-46" target="kLFt8e_vZOM-jvjozNHO-55">
          <mxGeometry relative="1" as="geometry" />
        </mxCell>
        <mxCell id="kLFt8e_vZOM-jvjozNHO-45" style="rounded=0;orthogonalLoop=1;jettySize=auto;html=1;exitX=1;exitY=0.5;exitDx=0;exitDy=0;entryX=0;entryY=0.5;entryDx=0;entryDy=0;" edge="1" parent="kLFt8e_vZOM-jvjozNHO-16" source="kLFt8e_vZOM-jvjozNHO-46" target="kLFt8e_vZOM-jvjozNHO-59">
          <mxGeometry relative="1" as="geometry" />
        </mxCell>
        <mxCell id="kLFt8e_vZOM-jvjozNHO-46" value="" style="ellipse;whiteSpace=wrap;html=1;aspect=fixed;fontSize=12;strokeWidth=1;flipV=1;flipH=1;" vertex="1" parent="kLFt8e_vZOM-jvjozNHO-16">
          <mxGeometry x="62.22857142857143" y="53.33333333333333" width="31.428571428571427" height="31.428571428571427" as="geometry" />
        </mxCell>
        <mxCell id="kLFt8e_vZOM-jvjozNHO-47" style="rounded=0;orthogonalLoop=1;jettySize=auto;html=1;exitX=1;exitY=0.5;exitDx=0;exitDy=0;entryX=0;entryY=0.5;entryDx=0;entryDy=0;" edge="1" parent="kLFt8e_vZOM-jvjozNHO-16" source="kLFt8e_vZOM-jvjozNHO-51" target="kLFt8e_vZOM-jvjozNHO-64">
          <mxGeometry relative="1" as="geometry" />
        </mxCell>
        <mxCell id="kLFt8e_vZOM-jvjozNHO-48" style="rounded=0;orthogonalLoop=1;jettySize=auto;html=1;exitX=1;exitY=0.5;exitDx=0;exitDy=0;entryX=0;entryY=0.5;entryDx=0;entryDy=0;" edge="1" parent="kLFt8e_vZOM-jvjozNHO-16" source="kLFt8e_vZOM-jvjozNHO-51" target="kLFt8e_vZOM-jvjozNHO-68">
          <mxGeometry relative="1" as="geometry" />
        </mxCell>
        <mxCell id="kLFt8e_vZOM-jvjozNHO-49" style="rounded=0;orthogonalLoop=1;jettySize=auto;html=1;exitX=1;exitY=0.5;exitDx=0;exitDy=0;entryX=0;entryY=0.5;entryDx=0;entryDy=0;" edge="1" parent="kLFt8e_vZOM-jvjozNHO-16" source="kLFt8e_vZOM-jvjozNHO-51" target="kLFt8e_vZOM-jvjozNHO-55">
          <mxGeometry relative="1" as="geometry" />
        </mxCell>
        <mxCell id="kLFt8e_vZOM-jvjozNHO-50" style="rounded=0;orthogonalLoop=1;jettySize=auto;html=1;exitX=1;exitY=0.5;exitDx=0;exitDy=0;entryX=0;entryY=0.5;entryDx=0;entryDy=0;" edge="1" parent="kLFt8e_vZOM-jvjozNHO-16" source="kLFt8e_vZOM-jvjozNHO-51" target="kLFt8e_vZOM-jvjozNHO-59">
          <mxGeometry relative="1" as="geometry" />
        </mxCell>
        <mxCell id="kLFt8e_vZOM-jvjozNHO-51" value="" style="ellipse;whiteSpace=wrap;html=1;aspect=fixed;fontSize=12;strokeWidth=1;flipV=1;flipH=1;" vertex="1" parent="kLFt8e_vZOM-jvjozNHO-16">
          <mxGeometry x="62.22857142857143" width="31.428571428571427" height="31.428571428571427" as="geometry" />
        </mxCell>
        <mxCell id="kLFt8e_vZOM-jvjozNHO-52" style="rounded=0;orthogonalLoop=1;jettySize=auto;html=1;exitX=1;exitY=0.5;exitDx=0;exitDy=0;entryX=0;entryY=0.5;entryDx=0;entryDy=0;" edge="1" parent="kLFt8e_vZOM-jvjozNHO-16" source="kLFt8e_vZOM-jvjozNHO-55" target="kLFt8e_vZOM-jvjozNHO-71">
          <mxGeometry relative="1" as="geometry" />
        </mxCell>
        <mxCell id="kLFt8e_vZOM-jvjozNHO-53" style="rounded=0;orthogonalLoop=1;jettySize=auto;html=1;exitX=1;exitY=0.5;exitDx=0;exitDy=0;entryX=0;entryY=0.5;entryDx=0;entryDy=0;" edge="1" parent="kLFt8e_vZOM-jvjozNHO-16" source="kLFt8e_vZOM-jvjozNHO-55" target="kLFt8e_vZOM-jvjozNHO-70">
          <mxGeometry relative="1" as="geometry" />
        </mxCell>
        <mxCell id="kLFt8e_vZOM-jvjozNHO-54" style="rounded=0;orthogonalLoop=1;jettySize=auto;html=1;exitX=1;exitY=0.5;exitDx=0;exitDy=0;entryX=0;entryY=0.5;entryDx=0;entryDy=0;" edge="1" parent="kLFt8e_vZOM-jvjozNHO-16" source="kLFt8e_vZOM-jvjozNHO-55" target="kLFt8e_vZOM-jvjozNHO-69">
          <mxGeometry relative="1" as="geometry" />
        </mxCell>
        <mxCell id="kLFt8e_vZOM-jvjozNHO-55" value="" style="ellipse;whiteSpace=wrap;html=1;aspect=fixed;fontSize=12;strokeWidth=1;flipV=1;flipH=1;" vertex="1" parent="kLFt8e_vZOM-jvjozNHO-16">
          <mxGeometry x="123.2" y="106.66666666666666" width="31.428571428571427" height="31.428571428571427" as="geometry" />
        </mxCell>
        <mxCell id="kLFt8e_vZOM-jvjozNHO-56" style="rounded=0;orthogonalLoop=1;jettySize=auto;html=1;exitX=1;exitY=0.5;exitDx=0;exitDy=0;entryX=0;entryY=0.5;entryDx=0;entryDy=0;" edge="1" parent="kLFt8e_vZOM-jvjozNHO-16" source="kLFt8e_vZOM-jvjozNHO-59" target="kLFt8e_vZOM-jvjozNHO-69">
          <mxGeometry relative="1" as="geometry" />
        </mxCell>
        <mxCell id="kLFt8e_vZOM-jvjozNHO-57" style="rounded=0;orthogonalLoop=1;jettySize=auto;html=1;exitX=1;exitY=0.5;exitDx=0;exitDy=0;entryX=0;entryY=0.5;entryDx=0;entryDy=0;" edge="1" parent="kLFt8e_vZOM-jvjozNHO-16" source="kLFt8e_vZOM-jvjozNHO-59" target="kLFt8e_vZOM-jvjozNHO-70">
          <mxGeometry relative="1" as="geometry" />
        </mxCell>
        <mxCell id="kLFt8e_vZOM-jvjozNHO-58" style="rounded=0;orthogonalLoop=1;jettySize=auto;html=1;exitX=1;exitY=0.5;exitDx=0;exitDy=0;entryX=0;entryY=0.5;entryDx=0;entryDy=0;" edge="1" parent="kLFt8e_vZOM-jvjozNHO-16" source="kLFt8e_vZOM-jvjozNHO-59" target="kLFt8e_vZOM-jvjozNHO-71">
          <mxGeometry relative="1" as="geometry" />
        </mxCell>
        <mxCell id="kLFt8e_vZOM-jvjozNHO-59" value="" style="ellipse;whiteSpace=wrap;html=1;aspect=fixed;fontSize=12;strokeWidth=1;flipV=1;flipH=1;" vertex="1" parent="kLFt8e_vZOM-jvjozNHO-16">
          <mxGeometry x="123.2" y="159.99666666666667" width="31.428571428571427" height="31.428571428571427" as="geometry" />
        </mxCell>
        <mxCell id="kLFt8e_vZOM-jvjozNHO-60" style="rounded=0;orthogonalLoop=1;jettySize=auto;html=1;exitX=1;exitY=0.5;exitDx=0;exitDy=0;entryX=0;entryY=0.5;entryDx=0;entryDy=0;" edge="1" parent="kLFt8e_vZOM-jvjozNHO-16" source="kLFt8e_vZOM-jvjozNHO-64" target="kLFt8e_vZOM-jvjozNHO-71">
          <mxGeometry relative="1" as="geometry" />
        </mxCell>
        <mxCell id="kLFt8e_vZOM-jvjozNHO-61" style="rounded=0;orthogonalLoop=1;jettySize=auto;html=1;exitX=1;exitY=0.5;exitDx=0;exitDy=0;entryX=0;entryY=0.5;entryDx=0;entryDy=0;" edge="1" parent="kLFt8e_vZOM-jvjozNHO-16" source="kLFt8e_vZOM-jvjozNHO-64" target="kLFt8e_vZOM-jvjozNHO-70">
          <mxGeometry relative="1" as="geometry" />
        </mxCell>
        <mxCell id="kLFt8e_vZOM-jvjozNHO-62" style="rounded=0;orthogonalLoop=1;jettySize=auto;html=1;exitX=1;exitY=0.5;exitDx=0;exitDy=0;entryX=0;entryY=0.5;entryDx=0;entryDy=0;" edge="1" parent="kLFt8e_vZOM-jvjozNHO-16" source="kLFt8e_vZOM-jvjozNHO-64" target="kLFt8e_vZOM-jvjozNHO-69">
          <mxGeometry relative="1" as="geometry" />
        </mxCell>
        <mxCell id="kLFt8e_vZOM-jvjozNHO-63" style="rounded=0;orthogonalLoop=1;jettySize=auto;html=1;exitX=1;exitY=0.5;exitDx=0;exitDy=0;entryX=0;entryY=0.5;entryDx=0;entryDy=0;" edge="1" parent="kLFt8e_vZOM-jvjozNHO-16" source="kLFt8e_vZOM-jvjozNHO-64" target="kLFt8e_vZOM-jvjozNHO-69">
          <mxGeometry relative="1" as="geometry" />
        </mxCell>
        <mxCell id="kLFt8e_vZOM-jvjozNHO-64" value="" style="ellipse;whiteSpace=wrap;html=1;aspect=fixed;fontSize=12;strokeWidth=1;flipV=1;flipH=1;" vertex="1" parent="kLFt8e_vZOM-jvjozNHO-16">
          <mxGeometry x="123.2" width="31.428571428571427" height="31.428571428571427" as="geometry" />
        </mxCell>
        <mxCell id="kLFt8e_vZOM-jvjozNHO-65" style="rounded=0;orthogonalLoop=1;jettySize=auto;html=1;exitX=1;exitY=0.5;exitDx=0;exitDy=0;entryX=0;entryY=0.5;entryDx=0;entryDy=0;" edge="1" parent="kLFt8e_vZOM-jvjozNHO-16" source="kLFt8e_vZOM-jvjozNHO-68" target="kLFt8e_vZOM-jvjozNHO-71">
          <mxGeometry relative="1" as="geometry" />
        </mxCell>
        <mxCell id="kLFt8e_vZOM-jvjozNHO-66" style="rounded=0;orthogonalLoop=1;jettySize=auto;html=1;exitX=1;exitY=0.5;exitDx=0;exitDy=0;entryX=0;entryY=0.5;entryDx=0;entryDy=0;" edge="1" parent="kLFt8e_vZOM-jvjozNHO-16" source="kLFt8e_vZOM-jvjozNHO-68" target="kLFt8e_vZOM-jvjozNHO-70">
          <mxGeometry relative="1" as="geometry" />
        </mxCell>
        <mxCell id="kLFt8e_vZOM-jvjozNHO-67" style="rounded=0;orthogonalLoop=1;jettySize=auto;html=1;exitX=1;exitY=0.5;exitDx=0;exitDy=0;entryX=0;entryY=0.5;entryDx=0;entryDy=0;" edge="1" parent="kLFt8e_vZOM-jvjozNHO-16" source="kLFt8e_vZOM-jvjozNHO-68" target="kLFt8e_vZOM-jvjozNHO-69">
          <mxGeometry relative="1" as="geometry" />
        </mxCell>
        <mxCell id="kLFt8e_vZOM-jvjozNHO-68" value="" style="ellipse;whiteSpace=wrap;html=1;aspect=fixed;fontSize=12;strokeWidth=1;flipV=1;flipH=1;" vertex="1" parent="kLFt8e_vZOM-jvjozNHO-16">
          <mxGeometry x="123.2" y="53.33333333333333" width="31.428571428571427" height="31.428571428571427" as="geometry" />
        </mxCell>
        <mxCell id="kLFt8e_vZOM-jvjozNHO-69" value="" style="ellipse;whiteSpace=wrap;html=1;aspect=fixed;fontSize=12;strokeWidth=1;" vertex="1" parent="kLFt8e_vZOM-jvjozNHO-16">
          <mxGeometry x="188.57142857142856" y="137.62" width="31.428571428571427" height="31.428571428571427" as="geometry" />
        </mxCell>
        <mxCell id="kLFt8e_vZOM-jvjozNHO-70" value="" style="ellipse;whiteSpace=wrap;html=1;aspect=fixed;fontSize=12;strokeWidth=1;" vertex="1" parent="kLFt8e_vZOM-jvjozNHO-16">
          <mxGeometry x="188.57142857142856" y="84.28666666666666" width="31.428571428571427" height="31.428571428571427" as="geometry" />
        </mxCell>
        <mxCell id="kLFt8e_vZOM-jvjozNHO-71" value="" style="ellipse;whiteSpace=wrap;html=1;aspect=fixed;fontSize=12;strokeWidth=1;" vertex="1" parent="kLFt8e_vZOM-jvjozNHO-16">
          <mxGeometry x="188.57142857142856" y="30.95333333333333" width="31.428571428571427" height="31.428571428571427" as="geometry" />
        </mxCell>
        <mxCell id="kLFt8e_vZOM-jvjozNHO-72" value="cross" style="rounded=0;whiteSpace=wrap;html=1;" vertex="1" parent="1">
          <mxGeometry x="870.5" y="420" width="53" height="25" as="geometry" />
        </mxCell>
        <mxCell id="kLFt8e_vZOM-jvjozNHO-73" value="select" style="rounded=0;whiteSpace=wrap;html=1;" vertex="1" parent="1">
          <mxGeometry x="867" y="360" width="53" height="25" as="geometry" />
        </mxCell>
        <mxCell id="kLFt8e_vZOM-jvjozNHO-74" value="mutaion" style="rounded=0;whiteSpace=wrap;html=1;" vertex="1" parent="1">
          <mxGeometry x="867" y="465" width="53" height="25" as="geometry" />
        </mxCell>
        <mxCell id="kLFt8e_vZOM-jvjozNHO-75" value="VNS" style="rounded=0;whiteSpace=wrap;html=1;" vertex="1" parent="1">
          <mxGeometry x="870.5" y="520" width="53" height="25" as="geometry" />
        </mxCell>
        <mxCell id="kLFt8e_vZOM-jvjozNHO-76" style="edgeStyle=orthogonalEdgeStyle;rounded=0;orthogonalLoop=1;jettySize=auto;html=1;exitX=0;exitY=0.5;exitDx=0;exitDy=0;" edge="1" parent="1" source="kLFt8e_vZOM-jvjozNHO-77" target="kLFt8e_vZOM-jvjozNHO-80">
          <mxGeometry relative="1" as="geometry" />
        </mxCell>
        <mxCell id="kLFt8e_vZOM-jvjozNHO-77" value="新解：计算DQN奖励" style="rounded=0;whiteSpace=wrap;html=1;" vertex="1" parent="1">
          <mxGeometry x="690" y="650" width="120" height="60" as="geometry" />
        </mxCell>
        <mxCell id="kLFt8e_vZOM-jvjozNHO-78" style="edgeStyle=orthogonalEdgeStyle;rounded=0;orthogonalLoop=1;jettySize=auto;html=1;exitX=0;exitY=0.5;exitDx=0;exitDy=0;" edge="1" parent="1" source="kLFt8e_vZOM-jvjozNHO-86">
          <mxGeometry relative="1" as="geometry">
            <mxPoint x="400" y="680" as="targetPoint" />
          </mxGeometry>
        </mxCell>
        <mxCell id="kLFt8e_vZOM-jvjozNHO-79" style="edgeStyle=orthogonalEdgeStyle;rounded=0;orthogonalLoop=1;jettySize=auto;html=1;exitX=0;exitY=0.5;exitDx=0;exitDy=0;" edge="1" parent="1" source="kLFt8e_vZOM-jvjozNHO-80" target="kLFt8e_vZOM-jvjozNHO-86">
          <mxGeometry relative="1" as="geometry" />
        </mxCell>
        <mxCell id="kLFt8e_vZOM-jvjozNHO-80" value="存储经验到DQN记忆库" style="rounded=0;whiteSpace=wrap;html=1;" vertex="1" parent="1">
          <mxGeometry x="530" y="650" width="120" height="60" as="geometry" />
        </mxCell>
        <mxCell id="kLFt8e_vZOM-jvjozNHO-81" style="edgeStyle=orthogonalEdgeStyle;rounded=0;orthogonalLoop=1;jettySize=auto;html=1;exitX=0;exitY=0.5;exitDx=0;exitDy=0;entryX=0;entryY=0.5;entryDx=0;entryDy=0;" edge="1" parent="1" source="kLFt8e_vZOM-jvjozNHO-83" target="kLFt8e_vZOM-jvjozNHO-13">
          <mxGeometry relative="1" as="geometry" />
        </mxCell>
        <mxCell id="kLFt8e_vZOM-jvjozNHO-82" style="edgeStyle=orthogonalEdgeStyle;rounded=0;orthogonalLoop=1;jettySize=auto;html=1;exitX=0.5;exitY=1;exitDx=0;exitDy=0;" edge="1" parent="1" source="kLFt8e_vZOM-jvjozNHO-83">
          <mxGeometry relative="1" as="geometry">
            <mxPoint x="120" y="750" as="targetPoint" />
            <Array as="points">
              <mxPoint x="141" y="740" />
              <mxPoint x="231" y="740" />
              <mxPoint x="231" y="730" />
              <mxPoint x="141" y="730" />
              <mxPoint x="141" y="750" />
            </Array>
          </mxGeometry>
        </mxCell>
        <mxCell id="kLFt8e_vZOM-jvjozNHO-83" value="是否达到终止条件" style="rhombus;whiteSpace=wrap;html=1;" vertex="1" parent="1">
          <mxGeometry x="101" y="640" width="80" height="80" as="geometry" />
        </mxCell>
        <mxCell id="kLFt8e_vZOM-jvjozNHO-84" style="edgeStyle=orthogonalEdgeStyle;rounded=0;orthogonalLoop=1;jettySize=auto;html=1;exitX=0;exitY=0.5;exitDx=0;exitDy=0;entryX=1;entryY=0.5;entryDx=0;entryDy=0;" edge="1" parent="1" source="kLFt8e_vZOM-jvjozNHO-86" target="kLFt8e_vZOM-jvjozNHO-83">
          <mxGeometry relative="1" as="geometry" />
        </mxCell>
        <mxCell id="kLFt8e_vZOM-jvjozNHO-85" style="edgeStyle=orthogonalEdgeStyle;rounded=0;orthogonalLoop=1;jettySize=auto;html=1;exitX=0.5;exitY=0;exitDx=0;exitDy=0;" edge="1" parent="1" source="kLFt8e_vZOM-jvjozNHO-86">
          <mxGeometry relative="1" as="geometry">
            <mxPoint x="430" y="620" as="targetPoint" />
          </mxGeometry>
        </mxCell>
        <mxCell id="kLFt8e_vZOM-jvjozNHO-86" value="训练DQN" style="rounded=0;whiteSpace=wrap;html=1;" vertex="1" parent="1">
          <mxGeometry x="370" y="650" width="120" height="60" as="geometry" />
        </mxCell>
        <mxCell id="kLFt8e_vZOM-jvjozNHO-87" style="edgeStyle=orthogonalEdgeStyle;rounded=0;orthogonalLoop=1;jettySize=auto;html=1;exitX=0.5;exitY=1;exitDx=0;exitDy=0;entryX=0.607;entryY=0.873;entryDx=0;entryDy=0;entryPerimeter=0;" edge="1" parent="1" source="kLFt8e_vZOM-jvjozNHO-73" target="kLFt8e_vZOM-jvjozNHO-73">
          <mxGeometry relative="1" as="geometry" />
        </mxCell>
        <mxCell id="kLFt8e_vZOM-jvjozNHO-88" value="S1" style="rounded=0;whiteSpace=wrap;html=1;" vertex="1" parent="1">
          <mxGeometry x="260" y="330" width="30" height="30" as="geometry" />
        </mxCell>
        <mxCell id="kLFt8e_vZOM-jvjozNHO-89" value="S2" style="rounded=0;whiteSpace=wrap;html=1;" vertex="1" parent="1">
          <mxGeometry x="260" y="370" width="30" height="30" as="geometry" />
        </mxCell>
        <mxCell id="kLFt8e_vZOM-jvjozNHO-90" value="S3" style="rounded=0;whiteSpace=wrap;html=1;" vertex="1" parent="1">
          <mxGeometry x="260" y="410" width="30" height="30" as="geometry" />
        </mxCell>
        <mxCell id="kLFt8e_vZOM-jvjozNHO-91" value="S4" style="rounded=0;whiteSpace=wrap;html=1;" vertex="1" parent="1">
          <mxGeometry x="260" y="450" width="30" height="30" as="geometry" />
        </mxCell>
        <mxCell id="kLFt8e_vZOM-jvjozNHO-92" value="S5" style="rounded=0;whiteSpace=wrap;html=1;" vertex="1" parent="1">
          <mxGeometry x="260" y="490" width="30" height="30" as="geometry" />
        </mxCell>
        <mxCell id="kLFt8e_vZOM-jvjozNHO-93" value="S6" style="rounded=0;whiteSpace=wrap;html=1;" vertex="1" parent="1">
          <mxGeometry x="260" y="530" width="30" height="30" as="geometry" />
        </mxCell>
        <mxCell id="kLFt8e_vZOM-jvjozNHO-94" value="States" style="text;html=1;align=center;verticalAlign=middle;resizable=0;points=[];autosize=1;strokeColor=none;fillColor=none;" vertex="1" parent="1">
          <mxGeometry x="245" y="580" width="60" height="30" as="geometry" />
        </mxCell>
        <mxCell id="kLFt8e_vZOM-jvjozNHO-95" value="&lt;span style=&quot;text-wrap-mode: wrap;&quot;&gt;Actions&lt;/span&gt;" style="text;html=1;align=center;verticalAlign=middle;resizable=0;points=[];autosize=1;strokeColor=none;fillColor=none;" vertex="1" parent="1">
          <mxGeometry x="585" y="580" width="60" height="30" as="geometry" />
        </mxCell>
        <mxCell id="kLFt8e_vZOM-jvjozNHO-96" value="Input Layer" style="text;html=1;align=center;verticalAlign=middle;resizable=0;points=[];autosize=1;strokeColor=none;fillColor=none;" vertex="1" parent="1">
          <mxGeometry x="335" y="550" width="80" height="30" as="geometry" />
        </mxCell>
        <mxCell id="kLFt8e_vZOM-jvjozNHO-97" value="Hidden Layer" style="text;html=1;align=center;verticalAlign=middle;resizable=0;points=[];autosize=1;strokeColor=none;fillColor=none;" vertex="1" parent="1">
          <mxGeometry x="415" y="550" width="90" height="30" as="geometry" />
        </mxCell>
        <mxCell id="kLFt8e_vZOM-jvjozNHO-98" value="Output Layer" style="text;html=1;align=center;verticalAlign=middle;resizable=0;points=[];autosize=1;strokeColor=none;fillColor=none;" vertex="1" parent="1">
          <mxGeometry x="495" y="550" width="90" height="30" as="geometry" />
        </mxCell>
      </root>
    </mxGraphModel>
  </diagram>
</mxfile>
